<?xml version="1.0" encoding="UTF-8" standalone="no"?>
<!-- Created with Inkscape (http://www.inkscape.org/) -->

<svg
   version="1.1"
   id="svg1"
   width="1057.8141"
   height="1058.5941"
   viewBox="0 0 1057.8141 1058.5941"
   sodipodi:docname="ghreplica_logo.svg"
   inkscape:version="1.4.2 (ebf0e940, 2025-05-08)"
   xmlns:inkscape="http://www.inkscape.org/namespaces/inkscape"
   xmlns:sodipodi="http://sodipodi.sourceforge.net/DTD/sodipodi-0.dtd"
   xmlns="http://www.w3.org/2000/svg"
   xmlns:svg="http://www.w3.org/2000/svg">
  <defs
     id="defs1" />
  <sodipodi:namedview
     id="namedview1"
     pagecolor="#ffffff"
     bordercolor="#000000"
     borderopacity="0.25"
     inkscape:showpageshadow="2"
     inkscape:pageopacity="0.0"
     inkscape:pagecheckerboard="0"
     inkscape:deskcolor="#d1d1d1"
     inkscape:zoom="0.33667748"
     inkscape:cx="383.15601"
     inkscape:cy="553.9426"
     inkscape:window-width="1472"
     inkscape:window-height="894"
     inkscape:window-x="0"
     inkscape:window-y="33"
     inkscape:window-maximized="0"
     inkscape:current-layer="g1" />
  <g
     inkscape:groupmode="layer"
     inkscape:label="Image"
     id="g1"
     transform="translate(-97.01854,-79.279269)">
    <g
       id="path2"
       style="opacity:1">
      <path
         id="path9"
         style="baseline-shift:baseline;display:inline;overflow:visible;vector-effect:none;fill:#ffffff;enable-background:accumulate;stop-color:#000000;stop-opacity:1"
         d="m 629.74414,79.279297 c -17.62488,-0.005 -35.10633,0.657146 -47.53516,2.007812 C 490.51081,91.252114 412.6337,117.14465 343.3125,161.25391 246.22223,223.0327 170.40171,316.6887 129.6875,425.04297 75.661936,568.82329 89.194068,731.63771 166.19922,865.70703 c 34.23081,59.59735 77.71424,109.47225 135.54687,155.79687 86.1809,69.032 190.85715,109.4187 300.04102,115.6738 38.9327,2.2304 81.84978,-0.941 122.76953,-8.9589 137.74977,-26.9913 262.58597,-111.0924 341.78906,-229.96294 25.9011,-38.87323 47.7449,-83.16966 61.6953,-125.33398 v -0.002 c 54.3249,-164.1942 24.995,-344.59374 -78.5351,-482.98047 C 1012.7617,240.82432 970.43969,200.68239 919.75781,166.90234 897.68265,152.189 885.03371,144.79186 863.49023,134.00586 805.51211,104.9784 746.33638,88.193164 678.13867,81.275391 665.13731,79.956657 647.36902,79.284292 629.74414,79.279297 Z" />
    </g>
    <path
       style="fill:#000000"
       d="M 603,1116.0113 C 498.24374,1110.0098 397.79437,1071.2759 315,1004.9566 C 258.89015,960.01191 217.51389,912.484 184.58271,855.14937 C 110.74088,726.58753 97.775784,570.2448 149.5335,432.5 C 188.60928,328.50614 261.58511,238.38552 354.69305,179.14069 C 421.1478,136.85536 495.4112,112.04412 584.5,102.36268 C 606.08798,100.01667 652.84748,100.01931 676,102.36768 C 742.03239,109.06581 798.22502,125.03802 854,152.96245 C 875.09319,163.52301 886.26701,170.05775 908,184.54303 C 956.78387,217.05803 997.13193,255.32089 1032.5313,302.63849 C 1131.9193,435.4885 1160.0696,608.62215 1107.9133,766.2619 C 1094.6556,806.33248 1073.5171,849.25876 1048.7035,886.49985 C 972.6535,1000.6381 852.42368,1081.5603 720.48097,1107.4137 C 681.29448,1115.0921 639.8712,1118.1235 603,1116.0112 Z
M 603.057877,1025.455451 C 607.233427,1023.066951 609.442477,1017.962051 610.205227,1008.938651 C 610.563707,1004.697951 611.203417,1001.014151 611.626817,1000.752451 C 614.303247,999.098351 617.063957,1008.404051 616.444027,1016.990151 C 616.028337,1022.747451 616.955707,1023.592651 623.126627,1023.080951 C 632.958457,1022.265551 641.323687,1013.971351 643.462907,1002.917251 C 644.008097,1000.100051 644.900007,972.445531 645.444917,941.462781 C 646.518297,880.432441 646.532857,880.295051 651.925947,880.295051 C 655.083827,880.295051 657.339527,883.053971 658.079337,887.821171 C 658.418517,890.006811 659.049397,916.545051 659.481287,946.795051 C 660.360297,1008.360951 660.225917,1007.228151 667.651337,1015.663851 C 672.175037,1020.803051 678.339617,1023.589551 684.136897,1023.115651 L 688.057877,1022.795051 L 688.606907,1013.795051 C 689.221017,1003.728151 690.054447,1001.052151 692.433707,1001.508151 C 693.656547,1001.742451 694.222267,1003.478951 694.723137,1008.535451 C 696.026057,1021.688851 698.700667,1025.587351 707.655547,1027.385751 C 714.644687,1028.789451 720.374067,1027.369751 724.236957,1023.276951 C 728.094957,1019.189351 729.392557,1015.049851 729.481797,1006.545051 C 729.541497,1000.857751 729.875667,999.295051 731.032197,999.295051 C 733.787237,999.295051 735.631707,1004.954351 735.849597,1014.076051 L 736.057877,1022.795051 L 741.753967,1022.772051 C 749.355647,1022.742051 754.912867,1019.014651 758.875827,1011.288551 C 761.367037,1006.431751 761.655087,1004.925151 761.360177,998.294751 C 760.938037,988.804051 758.076677,982.638191 750.862507,975.673751 C 747.944957,972.857511 745.557877,969.921421 745.557877,969.149421 C 745.557877,968.377421 749.630107,952.459141 754.607267,933.775471 C 759.584437,915.091801 767.044127,886.302881 771.184357,869.800101 C 775.324597,853.297321 779.144707,838.107551 779.673507,836.045051 C 780.202307,833.982551 781.059047,832.295051 781.577367,832.295051 C 783.450377,832.295051 783.713107,837.399971 782.589647,851.963541 C 780.564137,878.220451 775.647477,906.784811 766.494707,945.470341 L 762.312837,963.145641 L 766.363747,967.970341 C 774.482237,977.639611 777.884587,987.300651 777.882847,1000.679051 L 777.881847,1009.563151 L 791.469947,1008.983251 C 821.264767,1007.711651 836.520727,1000.606251 841.177867,985.832151 C 842.705617,980.985561 842.786367,979.415271 841.759597,974.520101 C 841.094537,971.349411 839.238677,966.985771 837.562677,964.651981 C 834.647677,960.592921 833.679017,957.295051 835.401767,957.295051 C 836.689587,957.295051 848.765917,942.620181 853.506147,935.295051 C 866.928167,914.553821 874.562257,888.605501 874.541707,863.795051 C 874.525007,843.639091 870.371627,828.164391 861.363747,814.696491 C 853.129267,802.384931 842.149817,795.528861 828.875117,794.409121 L 821.595027,793.795051 L 821.079457,779.943591 C 820.453277,763.120831 818.420367,748.734971 814.416737,732.795051 C 811.545357,721.363051 805.198887,702.706411 803.597107,700.988701 C 803.183547,700.545201 802.563947,702.234141 802.220217,704.741901 C 799.651137,723.485361 778.051897,736.337201 754.202077,733.313331 C 731.052497,730.378251 710.098687,716.821161 694.003367,694.364831 L 690.111327,688.934621 L 689.484037,691.864831 C 688.491277,696.502291 685.800537,702.238011 681.072637,709.795051 C 670.460677,726.757131 655.143137,735.418551 638.167797,734.055941 C 623.690837,732.893861 611.048437,722.898971 607.416227,709.744201 L 606.410107,706.100341 L 599.233987,713.012601 C 590.917627,721.023191 585.858457,724.623691 575.849367,729.654931 C 554.346957,740.463471 528.174947,740.518991 514.113817,729.785891 C 511.598527,727.865931 509.186177,726.295051 508.753017,726.295051 C 507.275037,726.295051 497.176867,742.775031 493.338557,751.451091 C 488.970617,761.324321 486.136507,771.799971 484.317597,784.795051 L 483.057877,793.795051 L 475.354707,794.493601 C 464.844437,795.446711 457.788487,798.915611 449.470307,807.219111 C 441.828767,814.847161 435.820447,825.980041 432.429047,838.795051 C 430.701027,845.324661 430.299647,849.827721 430.245247,863.295051 C 430.171147,881.651441 431.631327,891.411791 436.730597,906.644171 C 438.359907,911.511191 439.497237,915.689031 439.257997,915.928261 C 438.361937,916.824331 422.794677,904.309451 415.948377,897.189111 C 400.932647,881.572361 393.101837,865.101631 390.556217,843.781161 C 389.146247,831.972121 389.779967,821.727611 393.308107,799.295051 C 396.937317,776.219891 397.121947,751.492971 393.752047,739.840121 C 390.017457,726.926181 385.251007,718.889301 375.607317,709.245611 C 365.815417,699.453711 357.196677,694.399631 344.948397,691.267051 C 326.202357,686.472621 304.564347,691.038071 293.867007,702.044831 C 284.618617,711.560721 284.310037,726.172861 293.181777,734.492001 C 298.521627,739.499241 302.204527,740.346651 317.372107,740.057991 C 331.054617,739.797601 331.227877,739.822121 335.236917,742.586581 C 337.540867,744.175271 340.528897,747.622361 342.171547,750.586581 C 344.902547,755.514761 345.053607,756.413921 344.978617,767.295051 C 344.920417,775.731461 344.065387,783.190641 341.768837,795.295051 C 334.889537,831.553821 335.380457,856.271181 343.471677,881.031261 C 355.640387,918.268951 384.801597,950.104901 424.738807,969.752421 C 433.759587,974.190281 448.385757,979.471451 464.474127,984.099921 C 465.803067,984.482241 467.759607,986.370051 468.822007,988.295051 C 472.513807,994.984351 475.405607,997.935251 481.400617,1001.130551 C 490.119127,1005.777451 501.109617,1008.346451 515.057877,1008.997751 L 527.057877,1009.558051 L 527.110377,998.676551 C 527.173577,985.581051 529.152127,979.579431 536.688987,969.621861 L 541.614277,963.114651 L 536.164147,939.454851 C 529.143657,908.977951 525.117337,888.154151 522.985327,871.295051 C 520.979487,855.433721 520.503357,833.176391 522.157697,832.607021 C 522.840147,832.372151 525.578127,841.633641 529.372487,857.011781 C 532.735717,870.642581 540.384257,900.020051 546.369247,922.295051 C 552.354237,944.570051 557.559917,964.452931 557.937427,966.479241 C 558.581057,969.933941 558.300977,970.494541 553.441087,975.479241 C 541.103007,988.134151 539.137167,1004.855251 548.709007,1015.729451 C 553.173757,1020.801651 559.369127,1023.587151 565.136897,1023.115651 L 569.057877,1022.795051 L 569.108277,1014.295051 C 569.162277,1005.201251 570.794377,1000.065751 573.815437,999.483951 C 575.350627,999.188351 575.560437,1000.078751 575.579787,1006.971751 C 575.602587,1015.092651 577.549887,1021.395751 580.889877,1024.159651 C 586.054407,1028.433351 596.758277,1029.059051 603.057827,1025.455451 Z
M 558.557877,716.422461 C 568.705557,713.183851 577.243177,707.620071 587.129327,697.803061 C 604.563717,680.490591 615.541977,656.933661 620.547187,626.095671 C 622.442667,614.417281 623.613967,611.869841 625.953307,614.337911 C 628.264597,616.776371 629.681437,627.832031 630.272117,648.037701 C 630.885627,669.024261 630.087367,676.861211 625.927677,690.689511 C 623.090737,700.120521 623.427097,704.797741 627.270757,709.365671 C 630.882097,713.657501 635.227987,715.580761 641.314677,715.580761 C 653.008867,715.580761 664.376227,705.766071 670.452097,690.423221 C 676.384477,675.442731 678.197377,664.268461 679.418717,635.155351 C 679.869437,624.411631 680.561687,615.097901 680.957057,614.458181 C 682.033867,612.715871 684.351997,613.056941 684.945717,615.045051 C 685.233157,616.007551 686.635467,622.645051 688.061967,629.795051 C 696.918437,674.186221 717.365647,702.746581 747.557877,712.898041 C 755.881667,715.696731 770.655537,715.481021 776.347107,712.477711 C 781.839887,709.579291 784.549297,705.170051 784.554137,699.121781 C 784.558137,693.618591 781.911927,689.865071 775.290247,685.983371 C 761.233827,677.743371 750.009837,657.359381 746.034997,632.852631 C 744.538617,623.626721 744.194087,603.818941 745.451407,599.300301 C 746.679717,594.885871 749.379937,595.613731 751.636427,600.967501 C 760.871297,622.878301 771.088087,638.869341 784.516617,652.430651 C 804.725367,672.839211 826.192477,682.916481 851.796617,684.013761 C 869.618297,684.777531 882.379107,681.848941 892.851147,674.591811 C 900.700377,669.152291 903.712187,659.340481 899.601877,652.599381 C 896.041437,646.760081 893.695357,645.951811 878.170377,645.215791 C 867.666847,644.717841 862.569437,644.010681 858.237487,642.450541 C 833.564187,633.564501 812.658637,607.098481 806.988537,577.570361 C 804.429487,564.243651 806.307197,564.176661 819.238717,577.133291 C 834.238277,592.162001 847.763277,600.087981 867.579927,605.462441 C 874.685177,607.389441 878.405627,607.750421 890.557877,607.691841 C 903.287897,607.630441 906.130647,607.296001 913.846197,604.951771 C 940.626787,596.814971 960.507827,578.150771 964.650797,557.256721 C 967.222567,544.286631 959.678957,534.648861 948.154567,536.181051 C 946.235607,536.436181 942.675657,539.001231 937.654567,543.746611 C 927.923847,552.943021 925.386877,554.653841 917.517697,557.326031 C 899.565587,563.422151 879.117507,557.888311 863.974977,542.835831 C 854.168367,533.087531 850.165157,524.883701 850.103027,514.407791 C 850.058127,506.841501 850.099027,506.721821 856.765587,494.795051 C 883.484567,446.995151 888.909887,391.529251 871.926677,339.795051 C 845.412187,259.026681 768.035007,199.749921 676.671247,190.214671 C 659.943947,188.468911 624.364617,189.523661 609.057877,192.219061 C 583.635537,196.695751 562.922067,203.412401 540.883667,214.325541 C 470.747617,249.056041 425.193137,314.243981 419.531857,387.978571 C 416.554777,426.753211 426.282447,466.346291 446.820787,499.048531 C 450.944237,505.614111 451.057877,506.023581 451.057877,514.316081 C 451.057877,521.981841 450.715457,523.537591 447.646337,529.816081 C 438.129747,549.284141 413.822727,562.473201 393.285667,559.312341 C 380.247457,557.305621 373.459037,553.640421 363.557877,543.261741 C 359.897217,539.424521 356.803787,537.155331 354.307877,536.476371 C 342.886037,533.369311 334.222187,544.664421 337.415587,558.498961 C 342.169297,579.093171 363.399007,598.379871 389.115897,605.467501 C 400.459327,608.593771 424.537477,608.628981 435.733307,605.535701 C 454.978287,600.218481 471.668767,590.400421 485.749757,576.113851 C 496.774047,564.928611 498.037947,564.764391 497.293027,574.614011 C 496.318007,587.506041 489.463207,604.112851 479.601447,617.474631 C 470.847397,629.335561 455.435877,640.241481 442.102967,644.010321 C 439.328167,644.794681 431.588247,645.549771 424.903147,645.688321 C 411.457887,645.966951 409.094037,646.806951 405.454467,652.599411 C 402.471847,657.346331 403.255137,665.117631 407.208557,670.002201 C 414.206467,678.648361 430.965837,684.431731 449.057877,684.443691 C 476.346477,684.461691 500.889447,673.258881 522.169817,651.071131 C 534.432607,638.285471 543.590597,623.601451 553.417957,600.967531 C 554.926907,597.492201 555.998117,596.233211 557.242287,596.472821 C 559.921667,596.988821 560.783357,603.329701 560.207827,618.295081 C 558.923217,651.698471 547.975147,676.088511 528.244237,689.503391 C 525.046737,691.677351 521.560917,694.882321 520.497977,696.625561 C 515.792627,704.342391 520.165177,713.969121 530.102287,717.770681 C 535.518597,719.842741 549.989237,719.157141 558.557877,716.422491 Z
M 641.495637,540.284371 C 628.201577,538.203861 614.470647,529.957471 608.423637,520.422321 C 604.919287,514.896541 604.843097,512.918921 608.012427,509.749601 C 611.997767,505.764251 614.586087,506.522611 620.600777,513.437851 C 628.357167,522.355561 635.670987,525.614871 649.057877,526.119411 C 657.229277,526.427381 660.113857,526.124411 664.832657,524.462651 C 671.912937,521.969261 679.729747,516.371061 682.587537,511.747061 C 687.566147,503.691501 697.414757,507.760501 695.115147,516.922901 C 694.123807,520.872701 684.236467,530.656581 677.768567,534.087971 C 667.139047,539.727201 653.176387,542.112401 641.495637,540.284371 Z
M 527.487227,511.989641 C 511.980147,507.598281 499.095697,491.770931 494.894327,471.952291 C 492.569257,460.984491 493.483087,444.028331 496.950747,433.795051 C 501.879677,419.249521 510.885097,408.266901 522.090557,403.135611 C 526.134677,401.283701 528.823497,400.857621 536.557877,400.843061 C 545.477977,400.826261 546.442597,401.032871 552.360507,404.227501 C 588.144137,423.544331 587.432387,492.420161 551.274287,509.340581 C 543.672657,512.897811 534.357497,513.935201 527.487227,511.989641 Z
M 541.659997,445.025121 C 546.471257,441.810981 548.765577,436.920021 548.252887,430.970561 C 547.540187,422.700021 541.424027,417.128381 533.057877,417.128381 C 526.841287,417.128381 522.556067,419.827961 519.715257,425.533871 C 517.074617,430.837731 517.320407,435.731061 520.489187,440.941711 C 524.317747,447.237261 535.205167,449.337221 541.659997,445.025121 Z
M 756.487227,511.927681 C 749.998877,510.178241 743.707417,506.231421 738.453567,500.614621 C 732.602537,494.359401 729.351597,488.704191 725.910407,478.795051 C 723.402017,471.571961 723.133197,469.484011 723.142257,457.295051 C 723.149257,447.477241 723.635767,442.045761 724.924817,437.381631 C 729.231597,421.798521 738.954987,408.809551 750.289627,403.498081 C 755.222337,401.186591 757.364917,400.795051 765.081207,400.795051 C 773.251017,400.795051 774.732187,401.104141 780.739887,404.062751 C 792.671537,409.938731 801.816747,422.257401 806.153467,438.295051 C 808.851847,448.273961 808.609917,466.610801 805.652447,476.269831 C 799.862077,495.181001 789.693737,506.972611 775.317977,511.446851 C 768.536167,513.557581 763.051607,513.697631 756.487227,511.927681 Z
M 769.488417,445.830971 C 777.187457,441.849641 780.205927,433.330911 776.575157,425.830761 C 771.178637,414.683021 756.831137,413.891391 749.722207,424.349121 C 746.773037,428.687541 747.061077,436.384241 750.345197,440.996371 C 754.440247,446.747341 763.360117,449.000041 769.488417,445.830971 Z"
       id="path1" />
  </g>
</svg>
