<?xml version="1.0" encoding="UTF-8" standalone="no"?>
<!-- Created with Inkscape (http://www.inkscape.org/) -->

<svg
   version="1.1"
   id="svg1"
   width="1057.8141"
   height="1058.5941"
   viewBox="0 0 1057.8141 1058.5941"
   sodipodi:docname="ghreplica_logo.svg"
   inkscape:version="1.4.2 (ebf0e940, 2025-05-08)"
   xmlns:inkscape="http://www.inkscape.org/namespaces/inkscape"
   xmlns:sodipodi="http://sodipodi.sourceforge.net/DTD/sodipodi-0.dtd"
   xmlns="http://www.w3.org/2000/svg"
   xmlns:svg="http://www.w3.org/2000/svg">
  <defs
     id="defs1" />
  <sodipodi:namedview
     id="namedview1"
     pagecolor="#ffffff"
     bordercolor="#000000"
     borderopacity="0.25"
     inkscape:showpageshadow="2"
     inkscape:pageopacity="0.0"
     inkscape:pagecheckerboard="0"
     inkscape:deskcolor="#d1d1d1"
     inkscape:zoom="0.33667748"
     inkscape:cx="383.15601"
     inkscape:cy="553.9426"
     inkscape:window-width="1472"
     inkscape:window-height="894"
     inkscape:window-x="0"
     inkscape:window-y="33"
     inkscape:window-maximized="0"
     inkscape:current-layer="g1" />
  <g
     inkscape:groupmode="layer"
     inkscape:label="Image"
     id="g1"
     transform="translate(-97.01854,-79.279269)">
    <g
       id="path2"
       style="opacity:1">
      <path
         id="path9"
         style="baseline-shift:baseline;display:inline;overflow:visible;vector-effect:none;fill:#ffffff;enable-background:accumulate;stop-color:#000000;stop-opacity:1"
         d="m 629.74414,79.279297 c -17.62488,-0.005 -35.10633,0.657146 -47.53516,2.007812 C 490.51081,91.252114 412.6337,117.14465 343.3125,161.25391 246.22223,223.0327 170.40171,316.6887 129.6875,425.04297 75.661936,568.82329 89.194068,731.63771 166.19922,865.70703 c 34.23081,59.59735 77.71424,109.47225 135.54687,155.79687 86.1809,69.032 190.85715,109.4187 300.04102,115.6738 38.9327,2.2304 81.84978,-0.941 122.76953,-8.9589 137.74977,-26.9913 262.58597,-111.0924 341.78906,-229.96294 25.9011,-38.87323 47.7449,-83.16966 61.6953,-125.33398 v -0.002 c 54.3249,-164.1942 24.995,-344.59374 -78.5351,-482.98047 C 1012.7617,240.82432 970.43969,200.68239 919.75781,166.90234 897.68265,152.189 885.03371,144.79186 863.49023,134.00586 805.51211,104.9784 746.33638,88.193164 678.13867,81.275391 665.13731,79.956657 647.36902,79.284292 629.74414,79.279297 Z" />
    </g>
    <path
       style="fill:#000000"
       d="M 603,1116.0113 C 498.24374,1110.0098 397.79437,1071.2759 315,1004.9566 C 258.89015,960.01191 217.51389,912.484 184.58271,855.14937 C 110.74088,726.58753 97.775784,570.2448 149.5335,432.5 C 188.60928,328.50614 261.58511,238.38552 354.69305,179.14069 C 421.1478,136.85536 495.4112,112.04412 584.5,102.36268 C 606.08798,100.01667 652.84748,100.01931 676,102.36768 C 742.03239,109.06581 798.22502,125.03802 854,152.96245 C 875.09319,163.52301 886.26701,170.05775 908,184.54303 C 956.78387,217.05803 997.13193,255.32089 1032.5313,302.63849 C 1131.9193,435.4885 1160.0696,608.62215 1107.9133,766.2619 C 1094.6556,806.33248 1073.5171,849.25876 1048.7035,886.49985 C 972.6535,1000.6381 852.42368,1081.5603 720.48097,1107.4137 C 681.29448,1115.0921 639.8712,1118.1235 603,1116.0112 Z
M 578.10135,1025.455451 C 582.276901,1023.066951 584.485951,1017.962051 585.248701,1008.938651 C 585.607181,1004.697951 586.24689,1001.014151 586.67029,1000.752451 C 589.346721,999.098351 592.10743,1008.404051 591.487501,1016.990151 C 591.07181,1022.747451 591.99918,1023.592651 598.1701,1023.080951 C 608.00193,1022.265551 616.36716,1013.971351 618.50638,1002.917251 C 619.051571,1000.100051 619.94348,972.445531 620.488391,941.462781 C 621.56177,880.432441 621.576331,880.295051 626.96942,880.295051 C 630.127301,880.295051 632.383,883.053971 633.122811,887.821171 C 633.46199,890.006811 634.092871,916.545051 634.52476,946.795051 C 635.40377,1008.360951 635.26939,1007.228151 642.694811,1015.663851 C 647.21851,1020.803051 653.38309,1023.589551 659.18037,1023.115651 L 663.10135,1022.795051 L 663.65038,1013.795051 C 664.26449,1003.728151 665.09792,1001.052151 667.477181,1001.508151 C 668.700021,1001.742451 669.26574,1003.478951 669.76661,1008.535451 C 671.069531,1021.688851 673.74414,1025.587351 682.69902,1027.385751 C 689.68816,1028.789451 695.41754,1027.369751 699.28043,1023.276951 C 703.138431,1019.189351 704.436031,1015.049851 704.525271,1006.545051 C 704.584971,1000.857751 704.919141,999.295051 706.075671,999.295051 C 708.830711,999.295051 710.675181,1004.954351 710.893071,1014.076051 L 711.10135,1022.795051 L 716.79744,1022.772051 C 724.39912,1022.742051 729.956341,1019.014651 733.9193,1011.288551 C 736.41051,1006.431751 736.69856,1004.925151 736.403651,998.294751 C 735.981511,988.804051 733.120151,982.638191 725.905981,975.673751 C 722.988431,972.857511 720.60135,969.921421 720.60135,969.149421 C 720.60135,968.377421 724.67358,952.459141 729.65074,933.775471 C 734.62791,915.091801 742.087601,886.302881 746.22783,869.800101 C 750.368071,853.297321 754.188181,838.107551 754.71698,836.045051 C 755.245781,833.982551 756.10252,832.295051 756.62084,832.295051 C 758.493851,832.295051 758.756581,837.399971 757.633121,851.963541 C 755.60761,878.220451 750.69095,906.784811 741.53818,945.470341 L 737.35631,963.145641 L 741.40722,967.970341 C 749.525711,977.639611 752.928061,987.300651 752.92632,1000.679051 L 752.925321,1009.563151 L 766.513421,1008.983251 C 796.308241,1007.711651 811.5642,1000.606251 816.221341,985.832151 C 817.74909,980.985561 817.829841,979.415271 816.80307,974.520101 C 816.13801,971.349411 814.282151,966.985771 812.606151,964.651981 C 809.691151,960.592921 808.722491,957.295051 810.44524,957.295051 C 811.73306,957.295051 823.80939,942.620181 828.549621,935.295051 C 841.971641,914.553821 849.605731,888.605501 849.58518,863.795051 C 849.56848,843.639091 845.4151,828.164391 836.40722,814.696491 C 828.172741,802.384931 817.19329,795.528861 803.918591,794.409121 L 796.6385,793.795051 L 796.122931,779.943591 C 795.49675,763.120831 793.463841,748.734971 789.460211,732.795051 C 786.58883,721.363051 780.242361,702.706411 778.640581,700.988701 C 778.22702,700.545201 777.60742,702.234141 777.263691,704.741901 C 774.69461,723.485361 753.095371,736.337201 729.245551,733.313331 C 706.095971,730.378251 685.142161,716.821161 669.046841,694.364831 L 665.1548,688.934621 L 664.52751,691.864831 C 663.53475,696.502291 660.84401,702.238011 656.11611,709.795051 C 645.504151,726.757131 630.186611,735.418551 613.21127,734.055941 C 598.73431,732.893861 586.091911,722.898971 582.459701,709.744201 L 581.453581,706.100341 L 574.27746,713.012601 C 565.961101,721.023191 560.901931,724.623691 550.892841,729.654931 C 529.39043,740.463471 503.21842,740.518991 489.157291,729.785891 C 486.642,727.865931 484.22965,726.295051 483.796491,726.295051 C 482.318511,726.295051 472.220341,742.775031 468.38203,751.451091 C 464.014091,761.324321 461.179981,771.799971 459.36107,784.795051 L 458.101351,793.795051 L 450.398181,794.493601 C 439.887911,795.446711 432.83196,798.915611 424.513781,807.219111 C 416.872241,814.847161 410.863921,825.980041 407.472521,838.795051 C 405.744501,845.324661 405.343121,849.827721 405.288721,863.295051 C 405.214621,881.651441 406.674801,891.411791 411.77407,906.644171 C 413.403381,911.511191 414.54071,915.689031 414.30147,915.928261 C 413.405411,916.824331 397.83815,904.309451 390.991851,897.189111 C 375.97612,881.572361 368.14531,865.101631 365.599691,843.781161 C 364.189721,831.972121 364.823441,821.727611 368.351581,799.295051 C 371.980791,776.219891 372.16542,751.492971 368.795521,739.840121 C 365.06093,726.926181 360.294481,718.889301 350.650791,709.245611 C 340.858891,699.453711 332.240151,694.399631 319.991871,691.267051 C 301.245831,686.472621 279.607821,691.038071 268.910481,702.044831 C 259.66209,711.560721 259.353511,726.172861 268.225251,734.492001 C 273.565101,739.499241 277.248,740.346651 292.415581,740.057991 C 306.098091,739.797601 306.27135,739.822121 310.280391,742.586581 C 312.584341,744.175271 315.57237,747.622361 317.21502,750.586581 C 319.946021,755.514761 320.097081,756.413921 320.02209,767.295051 C 319.96389,775.731461 319.10886,783.190641 316.812311,795.295051 C 309.933011,831.553821 310.42393,856.271181 318.515151,881.031261 C 330.68386,918.268951 359.845071,950.104901 399.782281,969.752421 C 408.803061,974.190281 423.429231,979.471451 439.517601,984.099921 C 440.846541,984.482241 442.803081,986.370051 443.86548,988.295051 C 447.55728,994.984351 450.44908,997.935251 456.444091,1001.130551 C 465.162601,1005.777451 476.153091,1008.346451 490.10135,1008.997751 L 502.10135,1009.558051 L 502.15385,998.676551 C 502.217051,985.581051 504.1956,979.579431 511.732461,969.621861 L 516.657751,963.114651 L 511.20762,939.454851 C 504.18713,908.977951 500.160811,888.154151 498.0288,871.295051 C 496.02296,855.433721 495.546831,833.176391 497.20117,832.607021 C 497.883621,832.372151 500.621601,841.633641 504.41596,857.011781 C 507.779191,870.642581 515.427731,900.020051 521.41272,922.295051 C 527.397711,944.570051 532.603391,964.452931 532.9809,966.479241 C 533.62453,969.933941 533.34445,970.494541 528.484561,975.479241 C 516.146481,988.134151 514.18064,1004.855251 523.752481,1015.729451 C 528.217231,1020.801651 534.412601,1023.587151 540.18037,1023.115651 L 544.10135,1022.795051 L 544.151751,1014.295051 C 544.205751,1005.201251 545.837851,1000.065751 548.85891,999.483951 C 550.394101,999.188351 550.60391,1000.078751 550.623261,1006.971751 C 550.64606,1015.092651 552.593361,1021.395751 555.93335,1024.159651 C 561.09788,1028.433351 571.801751,1029.059051 578.1013,1025.455451 Z
M 533.60135,716.422461 C 543.749031,713.183851 552.28665,707.620071 562.1728,697.803061 C 579.607191,680.490591 590.58545,656.933661 595.590661,626.095671 C 597.486141,614.417281 598.657441,611.869841 600.996781,614.337911 C 603.30807,616.776371 604.72491,627.832031 605.31559,648.037701 C 605.929101,669.024261 605.13084,676.861211 600.971151,690.689511 C 598.13421,700.120521 598.470571,704.797741 602.314231,709.365671 C 605.925571,713.657501 610.27146,715.580761 616.35815,715.580761 C 628.052341,715.580761 639.4197,705.766071 645.49557,690.423221 C 651.42795,675.442731 653.24085,664.268461 654.462191,635.155351 C 654.91291,624.411631 655.605161,615.097901 656.00053,614.458181 C 657.07734,612.715871 659.39547,613.056941 659.98919,615.045051 C 660.276631,616.007551 661.67894,622.645051 663.10544,629.795051 C 671.961911,674.186221 692.40912,702.746581 722.60135,712.898041 C 730.925141,715.696731 745.69901,715.481021 751.390581,712.477711 C 756.88336,709.579291 759.592771,705.170051 759.59761,699.121781 C 759.60161,693.618591 756.955401,689.865071 750.333721,685.983371 C 736.277301,677.743371 725.05331,657.359381 721.07847,632.852631 C 719.582091,623.626721 719.23756,603.818941 720.494881,599.300301 C 721.72319,594.885871 724.423411,595.613731 726.679901,600.967501 C 735.914771,622.878301 746.13156,638.869341 759.560091,652.430651 C 779.768841,672.839211 801.235951,682.916481 826.84009,684.013761 C 844.66177,684.777531 857.42258,681.848941 867.89462,674.591811 C 875.743851,669.152291 878.75566,659.340481 874.64535,652.599381 C 871.08491,646.760081 868.73883,645.951811 853.213851,645.215791 C 842.71032,644.717841 837.612911,644.010681 833.28096,642.450541 C 808.60766,633.564501 787.702111,607.098481 782.03201,577.570361 C 779.472961,564.243651 781.35067,564.176661 794.28219,577.133291 C 809.281751,592.162001 822.806751,600.087981 842.623401,605.462441 C 849.72865,607.389441 853.4491,607.750421 865.60135,607.691841 C 878.331371,607.630441 881.17412,607.296001 888.88967,604.951771 C 915.670261,596.814971 935.551301,578.150771 939.694271,557.256721 C 942.266041,544.286631 934.72243,534.648861 923.198041,536.181051 C 921.27908,536.436181 917.719131,539.001231 912.698041,543.746611 C 902.967321,552.943021 900.430351,554.653841 892.561171,557.326031 C 874.609061,563.422151 854.160981,557.888311 839.01845,542.835831 C 829.21184,533.087531 825.208631,524.883701 825.146501,514.407791 C 825.101601,506.841501 825.1425,506.721821 831.80906,494.795051 C 858.52804,446.995151 863.953361,391.529251 846.970151,339.795051 C 820.455661,259.026681 743.07848,199.749921 651.714721,190.214671 C 634.98742,188.468911 599.40809,189.523661 584.10135,192.219061 C 558.679011,196.695751 537.96554,203.412401 515.92714,214.325541 C 445.791091,249.056041 400.23661,314.243981 394.575331,387.978571 C 391.598251,426.753211 401.325921,466.346291 421.864261,499.048531 C 425.98771,505.614111 426.101351,506.023581 426.101351,514.316081 C 426.101351,521.981841 425.758931,523.537591 422.689811,529.816081 C 413.173221,549.284141 388.8662,562.473201 368.32914,559.312341 C 355.290931,557.305621 348.502511,553.640421 338.601351,543.261741 C 334.940691,539.424521 331.847261,537.155331 329.351351,536.476371 C 317.92951,533.369311 309.265661,544.664421 312.459061,558.498961 C 317.21277,579.093171 338.44248,598.379871 364.159371,605.467501 C 375.5028,608.593771 399.580951,608.628981 410.776781,605.535701 C 430.021761,600.218481 446.712241,590.400421 460.79323,576.113851 C 471.817521,564.928611 473.08142,564.764391 472.336501,574.614011 C 471.361481,587.506041 464.506681,604.112851 454.644921,617.474631 C 445.890871,629.335561 430.479351,640.241481 417.14644,644.010321 C 414.371641,644.794681 406.631721,645.549771 399.94662,645.688321 C 386.501361,645.966951 384.137511,646.806951 380.497941,652.599411 C 377.515321,657.346331 378.298611,665.117631 382.25203,670.002201 C 389.24994,678.648361 406.009311,684.431731 424.101351,684.443691 C 451.389951,684.461691 475.932921,673.258881 497.21329,651.071131 C 509.47608,638.285471 518.634071,623.601451 528.461431,600.967531 C 529.970381,597.492201 531.04159,596.233211 532.285761,596.472821 C 534.96514,596.988821 535.826831,603.329701 535.2513,618.295081 C 533.966691,651.698471 523.018621,676.088511 503.287711,689.503391 C 500.090211,691.677351 496.604391,694.882321 495.541451,696.625561 C 490.836101,704.342391 495.20865,713.969121 505.145761,717.770681 C 510.562071,719.842741 525.032711,719.157141 533.60135,716.422491 Z
M 616.53911,540.284371 C 603.245051,538.203861 589.51412,529.957471 583.46711,520.422321 C 579.962761,514.896541 579.88657,512.918921 583.055901,509.749601 C 587.04124,505.764251 589.629561,506.522611 595.644251,513.437851 C 603.400641,522.355561 610.71446,525.614871 624.10135,526.119411 C 632.272751,526.427381 635.157331,526.124411 639.876131,524.462651 C 646.956411,521.969261 654.77322,516.371061 657.631011,511.747061 C 662.609621,503.691501 672.458231,507.760501 670.15862,516.922901 C 669.167281,520.872701 659.27994,530.656581 652.81204,534.087971 C 642.182521,539.727201 628.21986,542.112401 616.53911,540.284371 Z
M 502.5307,511.989641 C 487.02362,507.598281 474.13917,491.770931 469.9378,471.952291 C 467.612731,460.984491 468.526561,444.028331 471.99422,433.795051 C 476.923151,419.249521 485.92857,408.266901 497.13403,403.135611 C 501.178151,401.283701 503.86697,400.857621 511.60135,400.843061 C 520.521451,400.826261 521.48607,401.032871 527.40398,404.227501 C 563.187611,423.544331 562.47586,492.420161 526.31776,509.340581 C 518.71613,512.897811 509.40097,513.935201 502.5307,511.989641 Z
M 516.70347,445.025121 C 521.514731,441.810981 523.809051,436.920021 523.29636,430.970561 C 522.58366,422.700021 516.467501,417.128381 508.10135,417.128381 C 501.88476,417.128381 497.59954,419.827961 494.75873,425.533871 C 492.11809,430.837731 492.363881,435.731061 495.532661,440.941711 C 499.361221,447.237261 510.24864,449.337221 516.70347,445.025121 Z
M 731.5307,511.927681 C 725.042351,510.178241 718.75089,506.231421 713.497041,500.614621 C 707.64601,494.359401 704.39507,488.704191 700.95388,478.795051 C 698.445491,471.571961 698.176671,469.484011 698.18573,457.295051 C 698.192731,447.477241 698.67924,442.045761 699.96829,437.381631 C 704.27507,421.798521 713.99846,408.809551 725.333101,403.498081 C 730.265811,401.186591 732.408391,400.795051 740.12468,400.795051 C 748.294491,400.795051 749.77566,401.104141 755.78336,404.062751 C 767.71501,409.938731 776.86022,422.257401 781.19694,438.295051 C 783.895321,448.273961 783.653391,466.610801 780.695921,476.269831 C 774.905551,495.181001 764.737211,506.972611 750.361451,511.446851 C 743.57964,513.557581 738.09508,513.697631 731.5307,511.927681 Z
M 744.531891,445.830971 C 752.230931,441.849641 755.2494,433.330911 751.61863,425.830761 C 746.22211,414.683021 731.874611,413.891391 724.765681,424.349121 C 721.816511,428.687541 722.10455,436.384241 725.38867,440.996371 C 729.483721,446.747341 738.40359,449.000041 744.531891,445.830971 Z"
       id="path1" />
  </g>
</svg>
