<?xml version="1.0" encoding="UTF-8" standalone="no"?>
<!-- Created with Inkscape (http://www.inkscape.org/) -->

<svg
   version="1.1"
   id="svg1"
   width="1057.8141"
   height="1058.5941"
   viewBox="0 0 1057.8141 1058.5941"
   sodipodi:docname="ghreplica_logo.svg"
   inkscape:version="1.4.2 (ebf0e940, 2025-05-08)"
   xmlns:inkscape="http://www.inkscape.org/namespaces/inkscape"
   xmlns:sodipodi="http://sodipodi.sourceforge.net/DTD/sodipodi-0.dtd"
   xmlns="http://www.w3.org/2000/svg"
   xmlns:svg="http://www.w3.org/2000/svg">
  <defs
     id="defs1" />
  <sodipodi:namedview
     id="namedview1"
     pagecolor="#ffffff"
     bordercolor="#000000"
     borderopacity="0.25"
     inkscape:showpageshadow="2"
     inkscape:pageopacity="0.0"
     inkscape:pagecheckerboard="0"
     inkscape:deskcolor="#d1d1d1"
     inkscape:zoom="0.33667748"
     inkscape:cx="383.15601"
     inkscape:cy="553.9426"
     inkscape:window-width="1472"
     inkscape:window-height="894"
     inkscape:window-x="0"
     inkscape:window-y="33"
     inkscape:window-maximized="0"
     inkscape:current-layer="g1" />
  <g
     inkscape:groupmode="layer"
     inkscape:label="Image"
     id="g1"
     transform="translate(-97.01854,-79.279269)">
    <g
       id="path2"
       style="opacity:1">
      <path
         id="path9"
         style="baseline-shift:baseline;display:inline;overflow:visible;vector-effect:none;fill:#ffffff;enable-background:accumulate;stop-color:#000000;stop-opacity:1"
         d="m 629.74414,79.279297 c -17.62488,-0.005 -35.10633,0.657146 -47.53516,2.007812 C 490.51081,91.252114 412.6337,117.14465 343.3125,161.25391 246.22223,223.0327 170.40171,316.6887 129.6875,425.04297 75.661936,568.82329 89.194068,731.63771 166.19922,865.70703 c 34.23081,59.59735 77.71424,109.47225 135.54687,155.79687 86.1809,69.032 190.85715,109.4187 300.04102,115.6738 38.9327,2.2304 81.84978,-0.941 122.76953,-8.9589 137.74977,-26.9913 262.58597,-111.0924 341.78906,-229.96294 25.9011,-38.87323 47.7449,-83.16966 61.6953,-125.33398 v -0.002 c 54.3249,-164.1942 24.995,-344.59374 -78.5351,-482.98047 C 1012.7617,240.82432 970.43969,200.68239 919.75781,166.90234 897.68265,152.189 885.03371,144.79186 863.49023,134.00586 805.51211,104.9784 746.33638,88.193164 678.13867,81.275391 665.13731,79.956657 647.36902,79.284292 629.74414,79.279297 Z" />
    </g>
    <path
       style="fill:#000000"
       d="M 603,1116.0113 C 498.24374,1110.0098 397.79437,1071.2759 315,1004.9566 258.89015,960.01191 217.51389,912.484 184.58271,855.14937 110.74088,726.58753 97.775784,570.2448 149.5335,432.5 188.60928,328.50614 261.58511,238.38552 354.69305,179.14069 421.1478,136.85536 495.4112,112.04412 584.5,102.36268 c 21.58798,-2.34601 68.34748,-2.34337 91.5,0.005 66.03239,6.69813 122.22502,22.67034 178,50.59477 21.09319,10.56056 32.26701,17.0953 54,31.58058 48.78387,32.515 89.13193,70.77786 124.5313,118.09546 99.388,132.85001 127.5383,305.98366 75.382,463.62341 -13.2577,40.07058 -34.3962,82.99686 -59.2098,120.23795 -76.05,114.13825 -196.27982,195.06045 -328.22253,220.91385 -39.18649,7.6784 -80.60977,10.7098 -117.48097,8.5975 z m -24.5,-75.8509 c 4.17555,-2.3885 6.3846,-7.4934 7.14735,-16.5168 0.35848,-4.2407 0.99819,-7.9245 1.42159,-8.1862 2.67643,-1.6541 5.43714,7.6516 4.81721,16.2377 -0.41569,5.7573 0.51168,6.6025 6.6826,6.0908 9.83183,-0.8154 18.19706,-9.1096 20.33628,-20.1637 0.54519,-2.8172 1.4371,-30.47172 1.98201,-61.45447 C 621.96042,895.13739 621.97498,895 627.36807,895 c 3.15788,0 5.41358,2.75892 6.15339,7.52612 0.33918,2.18564 0.97006,28.72388 1.40195,58.97388 0.87901,61.5659 0.74463,60.4331 8.17005,68.8688 4.5237,5.1392 10.68828,7.9257 16.48556,7.4518 L 663.5,1037.5 l 0.54903,-9 c 0.61411,-10.0669 1.44754,-12.7429 3.8268,-12.2869 1.22284,0.2343 1.78856,1.9708 2.28943,7.0273 1.30292,13.1534 3.97753,17.0519 12.93241,18.8503 6.98914,1.4037 12.71852,-0.016 16.58141,-4.1088 3.858,-4.0876 5.1556,-8.2271 5.24484,-16.7319 0.0597,-5.6873 0.39387,-7.25 1.5504,-7.25 2.75504,0 4.59951,5.6593 4.8174,14.781 l 0.20828,8.719 5.69609,-0.023 c 7.60168,-0.03 13.1589,-3.7574 17.12186,-11.4835 2.49121,-4.8568 2.77926,-6.3634 2.48435,-12.9938 -0.42214,-9.4907 -3.2835,-15.65656 -10.49767,-22.621 C 723.38708,987.56246 721,984.62637 721,983.85437 c 0,-0.772 4.07223,-16.69028 9.04939,-35.37395 4.97717,-18.68367 12.43686,-47.47259 16.57709,-63.97537 4.14024,-16.50278 7.96035,-31.69255 8.48915,-33.75505 0.5288,-2.0625 1.38554,-3.75 1.90386,-3.75 1.87301,0 2.13574,5.10492 1.01228,19.66849 -2.02551,26.25691 -6.94217,54.82127 -16.09494,93.5068 l -4.18187,17.6753 4.05091,4.8247 c 8.11849,9.66927 11.52084,19.33031 11.5191,32.70871 l -10e-4,8.8841 13.5881,-0.5799 c 29.79482,-1.2716 45.05078,-8.377 49.70792,-23.1511 1.52775,-4.84659 1.6085,-6.41688 0.58173,-11.31205 -0.66506,-3.17069 -2.52092,-7.53433 -4.19692,-9.86812 C 810.0898,975.29787 809.12114,972 810.84389,972 c 1.28782,0 13.36415,-14.67487 18.10438,-22 13.42202,-20.74123 21.05611,-46.68955 21.03556,-71.5 -0.0167,-20.15596 -4.17008,-35.63066 -13.17796,-49.09856 -8.23448,-12.31156 -19.21393,-19.16763 -32.48863,-20.28737 L 797.03715,808.5 796.52158,794.64854 c -0.62618,-16.82276 -2.65909,-31.20862 -6.66272,-47.14854 -2.87138,-11.432 -9.21785,-30.08864 -10.81963,-31.80635 -0.41356,-0.4435 -1.03316,1.24544 -1.37689,3.7532 -2.56908,18.74346 -24.16832,31.5953 -48.01814,28.57143 -23.14958,-2.93508 -44.10339,-16.49217 -60.19871,-38.9485 l -3.89204,-5.43021 -0.62729,2.93021 c -0.99276,4.63746 -3.6835,10.37318 -8.4114,17.93022 -10.61196,16.96208 -25.9295,25.6235 -42.90484,24.26089 -14.47696,-1.16208 -27.11936,-11.15697 -30.75157,-24.31174 l -1.00612,-3.64386 -7.17612,6.91226 c -8.31636,8.01059 -13.37553,11.61109 -23.38462,16.64233 -21.50241,10.80854 -47.67442,10.86406 -61.73555,0.13096 C 487.04065,742.57088 484.6283,741 484.19514,741 c -1.47798,0 -11.57615,16.47998 -15.41446,25.15604 -4.36794,9.87323 -7.20205,20.34888 -9.02096,33.34396 l -1.25972,9 -7.70317,0.69855 c -10.51027,0.95311 -17.56622,4.42201 -25.8844,12.72551 -7.64154,7.62805 -13.64986,18.76093 -17.04126,31.57594 -1.72802,6.52961 -2.1294,11.03267 -2.1838,24.5 -0.0741,18.35639 1.38608,28.11674 6.48535,43.34912 1.62931,4.86702 2.76664,9.04486 2.5274,9.28409 -0.89606,0.89607 -16.46332,-11.61881 -23.30962,-18.73915 -15.01573,-15.61675 -22.84654,-32.08748 -25.39216,-53.40795 -1.40997,-11.80904 -0.77625,-22.05355 2.75189,-44.48611 3.62921,-23.07516 3.81384,-47.80208 0.44394,-59.45493 -3.73459,-12.91394 -8.50104,-20.95082 -18.14473,-30.59451 -9.7919,-9.7919 -18.41064,-14.84598 -30.65892,-17.97856 -18.74604,-4.79443 -40.38405,-0.22898 -51.08139,10.77778 -9.24839,9.51589 -9.55697,24.12803 -0.68523,32.44717 5.33985,5.00724 9.02275,5.85465 24.19033,5.56599 13.68251,-0.26039 13.85577,-0.23587 17.86481,2.52859 2.30395,1.58869 5.29198,5.03578 6.93463,8 2.731,4.92818 2.88206,5.82734 2.80707,16.70847 -0.0582,8.43641 -0.91323,15.89559 -3.20978,28 -6.8793,36.25877 -6.38838,60.97613 1.70284,85.73621 12.16871,37.23769 41.32992,69.07364 81.26713,88.72116 9.02078,4.43786 23.64695,9.71903 39.73532,14.3475 1.32894,0.38232 3.28548,2.27013 4.34788,4.19513 3.6918,6.6893 6.5836,9.6402 12.57861,12.8355 8.71851,4.6469 19.709,7.2159 33.65726,7.8672 l 12,0.5603 0.0525,-10.8815 c 0.0632,-13.0955 2.04175,-19.09712 9.57861,-29.05469 l 4.92529,-6.50721 -5.45013,-23.6598 C 504.58578,923.6829 500.55946,902.8591 498.42745,886 c -2.00584,-15.86133 -2.48197,-38.11866 -0.82763,-38.68803 0.68245,-0.23487 3.42043,9.02662 7.21479,24.40476 3.36323,13.6308 11.01177,43.00827 16.99676,65.28327 5.98499,22.275 11.19067,42.15788 11.56818,44.18419 0.64363,3.4547 0.36355,4.0153 -4.49634,9 -12.33808,12.65491 -14.30392,29.37601 -4.73208,40.25021 4.46475,5.0722 10.66012,7.8577 16.42789,7.3862 L 544.5,1037.5 l 0.0504,-8.5 c 0.054,-9.0938 1.6861,-14.2293 4.70716,-14.8111 1.53519,-0.2956 1.745,0.5948 1.76435,7.4878 0.0228,8.1209 1.9701,14.424 5.31009,17.1879 5.16453,4.2737 15.8684,4.8994 22.16795,1.2958 z M 534,731.12741 c 10.14768,-3.23861 18.6853,-8.80239 28.57145,-18.6194 17.43439,-17.31247 28.41265,-40.8694 33.41786,-71.70739 1.89548,-11.67839 3.06678,-14.22583 5.40612,-11.75776 2.31129,2.43846 3.72813,13.49412 4.31881,33.69979 0.61351,20.98656 -0.18475,28.82351 -4.34444,42.65181 -2.83694,9.43101 -2.50058,14.10823 1.34308,18.67616 3.61134,4.29183 7.95723,6.21509 14.04392,6.21509 11.69419,0 23.06155,-9.81469 29.13742,-25.15754 5.93238,-14.98049 7.74528,-26.15476 8.96662,-55.26787 0.45072,-10.74372 1.14297,-20.05745 1.53834,-20.69717 1.07681,-1.74231 3.39494,-1.40124 3.98866,0.58687 0.28744,0.9625 1.68975,7.6 3.11625,14.75 8.85647,44.39117 29.30368,72.95153 59.49591,83.10299 8.32379,2.79869 23.09766,2.58298 28.78923,-0.42033 5.49278,-2.89842 8.20219,-7.30766 8.20703,-13.35593 0.004,-5.50319 -2.64221,-9.25671 -9.26389,-13.13841 -14.05642,-8.24 -25.28041,-28.62399 -29.25525,-53.13074 -1.49638,-9.22591 -1.84091,-29.03369 -0.58359,-33.55233 1.22831,-4.41443 3.92853,-3.68657 6.18502,1.6672 9.23487,21.9108 19.45166,37.90184 32.88019,51.46315 20.20875,20.40856 41.67586,30.48583 67.28,31.58311 17.82168,0.76377 30.58249,-2.16482 41.05453,-9.42195 7.84923,-5.43952 10.86104,-15.25133 6.75073,-21.99243 -3.56044,-5.8393 -5.90652,-6.64757 -21.4315,-7.38359 -10.50353,-0.49795 -15.60094,-1.20511 -19.93289,-2.76525 -24.6733,-8.88604 -45.57885,-35.35206 -51.24895,-64.88018 -2.55905,-13.32671 -0.68134,-13.3937 12.25018,-0.43707 14.99956,15.02871 28.52456,22.95469 48.34121,28.32915 7.10525,1.927 10.8257,2.28798 22.97795,2.2294 12.73002,-0.0614 15.57277,-0.39584 23.28832,-2.74007 26.78059,-8.1368 46.66163,-26.801 50.8046,-47.69505 2.57177,-12.97009 -4.97184,-22.60786 -16.49623,-21.07567 -1.91896,0.25513 -5.47891,2.82018 -10.5,7.56556 -9.73072,9.19641 -12.26769,10.90723 -20.13687,13.57942 -17.95211,6.09612 -38.40019,0.56228 -53.54272,-14.4902 -9.80661,-9.7483 -13.80982,-17.95213 -13.87195,-28.42804 -0.0449,-7.56629 -0.004,-7.68597 6.66256,-19.61274 26.71898,-47.7999 32.1443,-103.2658 15.16109,-155 -26.51449,-80.76837 -103.89167,-140.04513 -195.25543,-149.58038 -16.7273,-1.74576 -52.30663,-0.69101 -67.61337,2.00439 -25.42234,4.47669 -46.13581,11.19334 -68.17421,22.10648 -70.13605,34.7305 -115.69053,99.91844 -121.35181,173.65303 -2.97708,38.77464 6.75059,78.36772 27.28893,111.06996 4.12345,6.56558 4.23709,6.97505 4.23709,15.26755 0,7.66576 -0.34242,9.22151 -3.41154,15.5 -9.51659,19.46806 -33.82361,32.65712 -54.36067,29.49626 -13.03821,-2.00672 -19.82663,-5.67192 -29.72779,-16.0506 -3.66066,-3.83722 -6.75409,-6.10641 -9.25,-6.78537 -11.42184,-3.10706 -20.08569,8.18805 -16.89229,22.02259 4.75371,20.59421 25.98342,39.88091 51.70031,46.96854 11.34343,3.12627 35.42158,3.16148 46.61741,0.0682 19.24498,-5.31722 35.93546,-15.13528 50.01645,-29.42185 11.02429,-11.18524 12.28819,-11.34946 11.54327,-1.49984 -0.97502,12.89203 -7.82982,29.49884 -17.69158,42.86062 -8.75405,11.86093 -24.16557,22.76685 -37.49848,26.53569 -2.7748,0.78436 -10.51472,1.53945 -17.19982,1.678 -13.44526,0.27863 -15.80911,1.11863 -19.44868,6.91109 -2.98262,4.74692 -2.19933,12.51822 1.75409,17.40279 6.99791,8.64616 23.75728,14.42953 41.84932,14.44149 27.2886,0.018 51.83157,-11.18481 73.11194,-33.37256 12.26279,-12.78566 21.42078,-27.46968 31.24814,-50.1036 1.50895,-3.47533 2.58016,-4.73432 3.82433,-4.49471 2.67938,0.516 3.54107,6.85688 2.96554,21.82226 -1.28461,33.40339 -12.23268,57.79343 -31.96359,71.20831 -3.1975,2.17396 -6.68332,5.37893 -7.74626,7.12217 -4.70535,7.71683 -0.3328,17.34356 9.60431,21.14512 5.41631,2.07206 19.88695,1.38646 28.45559,-1.34819 z m 82.93776,-176.13809 c -13.29406,-2.08051 -27.02499,-10.3269 -33.072,-19.86205 -3.50435,-5.52578 -3.58054,-7.5034 -0.41121,-10.67272 3.98534,-3.98535 6.57366,-3.22699 12.58835,3.68825 7.75639,8.91771 15.07021,12.17702 28.4571,12.68156 8.1714,0.30797 11.05598,0.005 15.77478,-1.65676 7.08028,-2.49339 14.89709,-8.09159 17.75488,-12.71559 4.97861,-8.05556 14.82722,-3.98656 12.52761,5.17584 -0.99134,3.9498 -10.87868,13.73368 -17.34658,17.16507 -10.62952,5.63923 -24.59218,8.02443 -36.27293,6.1964 z M 502.92935,526.69459 c -15.50708,-4.39136 -28.39153,-20.21871 -32.5929,-40.03735 -2.32507,-10.9678 -1.41124,-27.92396 2.05642,-38.15724 4.92893,-14.54553 13.93435,-25.52815 25.13981,-30.65944 4.04412,-1.85191 6.73294,-2.27799 14.46732,-2.29255 8.9201,-0.0168 9.88472,0.18981 15.80263,3.38444 35.78363,19.31683 35.07188,88.19266 -1.08622,105.11308 -7.60163,3.55723 -16.91679,4.59462 -23.78706,2.64906 z m 14.17277,-66.96452 c 4.81126,-3.21414 7.10558,-8.1051 6.59289,-14.05456 -0.7127,-8.27054 -6.82886,-13.84218 -15.19501,-13.84218 -6.21659,0 -10.50181,2.69958 -13.34262,8.40549 -2.64064,5.30386 -2.39485,10.19719 0.77393,15.40784 3.82856,6.29555 14.71598,8.39551 21.17081,4.08341 z m 214.82723,66.90256 c -6.48835,-1.74944 -12.77981,-5.69626 -18.03366,-11.31306 -5.85103,-6.25522 -9.10197,-11.91043 -12.54316,-21.81957 -2.50839,-7.22309 -2.77721,-9.31104 -2.76815,-21.5 0.007,-9.81781 0.49351,-15.24929 1.78256,-19.91342 4.30678,-15.58311 14.03017,-28.57208 25.36481,-33.88355 4.93271,-2.31149 7.07529,-2.70303 14.79158,-2.70303 8.16981,0 9.65098,0.30909 15.65868,3.2677 11.93165,5.87598 21.07686,18.19465 25.41358,34.2323 2.69838,9.97891 2.45645,28.31575 -0.50102,37.97478 -5.79037,18.91117 -15.95871,30.70278 -30.33447,35.17702 -6.78181,2.11073 -12.26637,2.25078 -18.83075,0.48083 z m 13.00119,-66.09671 c 7.69904,-3.98133 10.71751,-12.50006 7.08674,-20.00021 -5.39652,-11.14774 -19.74402,-11.93937 -26.85295,-1.48164 -2.94917,4.33842 -2.66113,12.03512 0.62299,16.64725 4.09505,5.75097 13.01492,8.00367 19.14322,4.8346 z"
       id="path1" />
  </g>
</svg>
